<?xml version="1.0" encoding="UTF-8"?>
<svg id="Camada_2" data-name="Camada 2" xmlns="http://www.w3.org/2000/svg" viewBox="0 0 28.49 28.26">
  <defs>
    <style>
      .cls-1 {
        fill: #33348e;
        fill-rule: evenodd;
        stroke-width: 0px;
      }
    </style>
  </defs>
  <g id="Camada_1-2" data-name="Camada 1">
    <g>
      <path class="cls-1" d="M14.25,0L.23,9.4l5.84,3.79,6.97-4.7-2.77-1.82,3.79-2.54,8.22,5.46-13.49,9.05,2.92,1.93,16.78-11.18-.04-.04L14.25,0ZM28.23,0l-5.83,3.86,2.92,1.97,2.92-1.97V0h0ZM.13,28.26l5.83-3.86-2.92-1.97-2.92,1.97v3.86h0Z"/>
      <path class="cls-1" d="M14.24,28.25l14.02-9.4-5.84-3.79-6.97,4.7,2.77,1.82-3.79,2.54-8.22-5.46,13.49-9.05-2.92-1.93L0,18.85l.04.04,14.21,9.36h0Z"/>
    </g>
  </g>
</svg>