<?xml version="1.0" encoding="UTF-8"?>
<svg id="Camada_2" data-name="Camada 2" xmlns="http://www.w3.org/2000/svg" viewBox="0 0 43.53 23.39">
  <defs>
    <style>
      .cls-1 {
        isolation: isolate;
      }

      .cls-2 {
        fill: #575787;
      }

      .cls-2, .cls-3 {
        stroke-width: 0px;
      }

      .cls-3 {
        fill: #b9354e;
      }
    </style>
  </defs>
  <g id="Camada_1-2" data-name="Camada 1">
    <g>
      <g>
        <circle class="cls-3" cx="8.41" cy="14.46" r=".5"/>
        <circle class="cls-3" cx="14.59" cy="14.46" r=".5"/>
        <g>
          <path class="cls-3" d="M11.69,0C5.25,0,0,5.25,0,11.69s5.25,11.69,11.69,11.69,11.69-5.25,11.69-11.69S18.14,0,11.69,0ZM11.69,22.07c-5.7,0-10.36-4.65-10.36-10.38S5.99,1.34,11.69,1.34s10.36,4.65,10.38,10.38c0,5.7-4.65,10.36-10.38,10.36Z"/>
          <path class="cls-3" d="M7.46,14.08c0,.23-.19.42-.42.42-.11,0-.22-.05-.3-.12-.08-.08-.12-.18-.12-.3,0-.23.19-.42.42-.42s.42.19.42.42Z"/>
          <path class="cls-3" d="M8.85,13.07c0,.27-.22.5-.5.5s-.5-.22-.5-.5.22-.5.5-.5.5.22.5.5Z"/>
          <path class="cls-3" d="M15.15,13.07c0,.27-.22.5-.5.5s-.5-.22-.5-.5.22-.5.5-.5.5.22.5.5Z"/>
          <path class="cls-3" d="M16.46,14.08c0,.27-.22.5-.5.5s-.5-.22-.5-.5.22-.5.5-.5.5.22.5.5Z"/>
          <path class="cls-3" d="M18.94,15.01c-.04.1-.86,2.5-3.91,2.5-1.64,0-2.67-.65-3.28-1.34-.57.65-1.6,1.34-3.43,1.34-1.66.02-3.15-.95-3.8-2.48-.08-.29.06-.59.32-.72.32-.17.72-.06.9.27.46.99,1.45,1.64,2.56,1.62,1.89,0,2.52-.92,2.71-1.32.02-.08.04-.15.04-.23v-.9c0-.13-.06-.29-.15-.38-.19-.21-.34-.36-.38-.4l-2.52-2.54c-.92-.88-1.07-2.31-.38-3.38.1-.13.21-.29.32-.4,1.05-1.03,2.73-1.03,3.76,0,.11-.11.23-.21.36-.31,1.2-.84,2.86-.53,3.7.67.74,1.09.59,2.52-.34,3.43l-2.67,2.69-.02.02-.19.19c-.1.1-.15.25-.15.38v.9c0,.08.02.15.06.23.19.4.8,1.32,2.58,1.32,2.06,0,2.61-1.53,2.63-1.58.11-.34.5-.53.84-.42.34.11.53.48.46.84Z"/>
        </g>
      </g>
      <g>
        <g class="cls-1">
          <path class="cls-2" d="M33.98,4.85v2c0,.47-.24.62-.57.62h-.13c-.35,0-.6-.14-.6-.62v-1.78c0-.5-.21-.76-.65-.76-.32,0-.59.18-.75.44v2.09c0,.47-.24.62-.57.62h-.13c-.34,0-.6-.14-.6-.62v-1.76c0-.52-.22-.77-.65-.77-.3,0-.58.18-.73.44v2.09c0,.47-.24.62-.58.62h-.13c-.35,0-.59-.14-.59-.62v-3.42c0-.05.23-.15.49-.15.32,0,.66.13.76.68.29-.42.67-.73,1.28-.73.69,0,1.12.33,1.3.84.29-.47.7-.84,1.38-.84,1.05,0,1.46.68,1.46,1.62Z"/>
          <path class="cls-2" d="M36.74,3.23c1.23,0,2.07.86,2.07,2.06v.08c0,.21-.07.33-.29.33h-2.8s0,.09.03.13c.12.5.55.81,1.12.81s.93-.25,1.11-.57c0,0,.63.03.63.55,0,.24-.16.47-.46.65-.3.18-.75.3-1.32.3-1.37,0-2.24-.83-2.24-2.13s.9-2.19,2.15-2.19ZM37.63,5.02c-.03-.56-.37-.92-.9-.92s-.93.39-1,.92h1.9Z"/>
          <path class="cls-2" d="M42.94,3.28c.34,0,.59.14.59.63v3.42s-.23.14-.49.14c-.28,0-.57-.09-.72-.47-.02-.06-.03-.13-.04-.21-.29.44-.71.76-1.36.76-1.07,0-1.51-.76-1.51-1.68v-1.96c0-.47.24-.63.57-.63h.13c.35,0,.6.14.6.63v1.75c0,.5.26.81.71.81.36,0,.65-.2.81-.49v-2.07c0-.47.24-.63.57-.63h.13Z"/>
        </g>
        <g class="cls-1">
          <path class="cls-2" d="M31.79,11.64c0,1.28-.77,2.17-1.91,2.17-.61,0-1.07-.33-1.28-.74v1.63c0,.47-.24.62-.57.62h-.14c-.34,0-.59-.14-.59-.62v-5.01c0-.05.23-.15.5-.15.29,0,.64.13.75.6,0,.03.02.09.03.15.23-.48.71-.81,1.33-.81,1.12,0,1.9.84,1.9,2.15ZM30.55,11.66c0-.68-.4-1.13-.98-1.13-.47,0-.81.24-.97.62v.75c0,.53.43.89.96.89.6,0,1-.45,1-1.12Z"/>
          <path class="cls-2" d="M34.39,9.49c1.23,0,2.07.86,2.07,2.06v.08c0,.21-.07.33-.29.33h-2.8s0,.09.03.13c.12.5.55.81,1.12.81s.93-.25,1.11-.57c0,0,.63.03.63.55,0,.24-.16.47-.46.65-.3.18-.75.3-1.32.3-1.37,0-2.24-.83-2.24-2.13s.9-2.19,2.15-2.19ZM35.28,11.28c-.03-.56-.37-.92-.9-.92s-.93.39-1,.92h1.9Z"/>
          <path class="cls-2" d="M37.45,12.38v-1.8h-.18c-.36,0-.52-.16-.52-.45v-.08c0-.29.16-.47.52-.47h.18v-.49c0-.43.21-.63.58-.63h.12c.34,0,.57.14.57.63v.49h.65c.36,0,.52.15.52.45v.08c0,.31-.17.47-.53.47h-.66v1.65c0,.37.13.55.43.55.24,0,.39-.12.5-.27.05-.02.3.16.3.5,0,.18-.07.34-.2.49-.19.18-.51.31-.92.31-.92,0-1.36-.49-1.36-1.44Z"/>
        </g>
        <g class="cls-1">
          <path class="cls-2" d="M27.09,18.67c0-1.25.91-2.15,2.17-2.15.65,0,1.07.18,1.36.4.28.23.39.5.39.71,0,.51-.68.61-.71.55-.15-.37-.43-.64-.98-.64-.6,0-1.04.47-1.04,1.12s.44,1.13,1.04,1.13c.53,0,.83-.28.98-.65.03-.05.71.02.71.57,0,.19-.13.47-.41.7-.28.24-.72.41-1.34.41-1.28,0-2.17-.89-2.17-2.17Z"/>
          <path class="cls-2" d="M32.24,20.75c-.34,0-.6-.14-.6-.62v-5.12s.23-.14.5-.14c.39,0,.81.2.81,1.02v4.25c0,.47-.24.62-.57.62h-.13Z"/>
          <path class="cls-2" d="M37.32,16.56c.34,0,.59.14.59.63v3.42s-.23.14-.49.14c-.28,0-.57-.09-.72-.47-.02-.06-.03-.13-.04-.21-.29.44-.71.76-1.36.76-1.07,0-1.51-.76-1.51-1.68v-1.96c0-.47.24-.63.57-.63h.13c.35,0,.6.14.6.63v1.75c0,.5.26.81.71.81.36,0,.65-.2.81-.49v-2.07c0-.47.24-.63.57-.63h.13Z"/>
          <path class="cls-2" d="M40.01,20.35c-.05.3-.26.4-.52.4h-.14c-.34,0-.59-.14-.59-.62v-5.12s.23-.14.5-.14c.38,0,.81.2.81,1.02v1.28c.29-.4.73-.65,1.29-.65,1.12,0,1.9.84,1.9,2.15s-.77,2.17-1.91,2.17c-.63,0-1.1-.32-1.3-.74,0,.09-.02.17-.03.25ZM41.03,17.54c-.47,0-.81.24-.97.62v.76c.02.53.44.88.96.88.6,0,1-.45,1-1.12s-.4-1.13-.98-1.13Z"/>
        </g>
      </g>
    </g>
  </g>
</svg>